<svg width="27" height="27" viewBox="0 0 27 27" fill="none" xmlns="http://www.w3.org/2000/svg">
<rect x="0.125" y="0.466797" width="26" height="26" rx="13" fill="#343961"/>
<path d="M12.875 6.39648C11.9479 6.39648 11.0729 6.57357 10.25 6.92773C9.42708 7.2819 8.71094 7.76367 8.10156 8.37305C7.49219 8.98242 7.01042 9.69857 6.65625 10.5215C6.30208 11.3444 6.125 12.2194 6.125 13.1465C6.125 14.0736 6.30208 14.9486 6.65625 15.7715C7.01042 16.5944 7.49219 17.3105 8.10156 17.9199C8.71094 18.5293 9.42708 19.0111 10.25 19.3652C11.0729 19.7194 11.9479 19.8965 12.875 19.8965C13.8021 19.8965 14.6771 19.7194 15.5 19.3652C16.3229 19.0111 17.0391 18.5293 17.6484 17.9199C18.2578 17.3105 18.7396 16.5944 19.0938 15.7715C19.4479 14.9486 19.625 14.0736 19.625 13.1465C19.625 12.2194 19.4479 11.3444 19.0938 10.5215C18.7396 9.69857 18.2578 8.98242 17.6484 8.37305C17.0391 7.76367 16.3229 7.2819 15.5 6.92773C14.6771 6.57357 13.8021 6.39648 12.875 6.39648ZM12.875 9.20898C13.0833 9.20898 13.2604 9.28451 13.4062 9.43555C13.5521 9.58659 13.625 9.76107 13.625 9.95898V12.3965H16.0312C16.2292 12.3965 16.4036 12.4694 16.5547 12.6152C16.7057 12.7611 16.7812 12.9382 16.7812 13.1465C16.7812 13.3548 16.7057 13.5319 16.5547 13.6777C16.4036 13.8236 16.2292 13.8965 16.0312 13.8965H13.625V16.3027C13.625 16.5007 13.5521 16.6751 13.4062 16.8262C13.2604 16.9772 13.0833 17.0527 12.875 17.0527C12.6667 17.0527 12.4896 16.9772 12.3438 16.8262C12.1979 16.6751 12.125 16.5007 12.125 16.3027V13.8965H9.6875C9.48958 13.8965 9.3151 13.8236 9.16406 13.6777C9.01302 13.5319 8.9375 13.3548 8.9375 13.1465C8.9375 12.9382 9.01302 12.7611 9.16406 12.6152C9.3151 12.4694 9.48958 12.3965 9.6875 12.3965H12.125V9.95898C12.125 9.76107 12.1979 9.58659 12.3438 9.43555C12.4896 9.28451 12.6667 9.20898 12.875 9.20898Z" fill="#0DD39C"/>
</svg>
